<?xml version="1.0" encoding="UTF-8"?><svg id="Capa_2" xmlns="http://www.w3.org/2000/svg" viewBox="0 0 196.91 195"><g id="Capa_2_copia"><g><path d="M95.59,106.08c0,4-1.17,7.26-3.5,9.76-2.34,2.5-5.34,3.75-9.01,3.75-8.84,0-13.26-3.92-13.26-11.76,0-2,.54-4.38,1.63-7.13,1.08-2.75,1.63-4.71,1.63-5.88,0-3.17-1.21-5.88-3.63-8.13-2.42-2.25-5.38-3.38-8.88-3.38-15.18,0-22.77,16.93-22.77,50.8,0,19.35,3.34,33.2,10.01,41.54,5.17,6.34,11.51,9.51,19.02,9.51s15.85-5.09,24.02-15.26c1-1.33,1.92-2,2.75-2,.66,0,1,.5,1,1.5,0,3.17-3,7.59-9.01,13.26-8.68,8.18-19.1,12.26-31.28,12.26-15.01,0-27.82-5.38-38.41-16.14C5.29,168.02,0,154.96,0,139.61c0-16.68,5.59-30.74,16.77-42.16,11.17-11.42,24.94-17.14,41.29-17.14,10.51,0,19.39,2.5,26.65,7.51s10.89,11.1,10.89,18.27Z" fill="#181d35"/><path d="M196.91,168.85c0,2.29-2.3,5.43-6.89,9.43-12.34,11.15-27.56,16.72-45.63,16.72-11.77,0-20.31-2.44-25.62-7.3-3.96-3.62-6.92-9.4-8.88-17.32h0s0-.06-.02-.08c-.66-2.68-1.21-5.6-1.64-8.77-.03,.06-.07,.13-.1,.19-.45-2.81-.88-6.22-1.17-10.08v-18.9c.04-.52,.04-1.04,0-1.53v-49.24c0-28.71-1.01-46.37-3.02-52.98l-.43-2.15c-4.02-14.36-14.21-21.54-30.58-21.54-9.48,0-17.09,2.72-22.83,8.17-5.74,5.44-8.61,10.75-8.61,15.91,0,2.86,3.45,4.59,10.37,5.16,10.37,.86,15.56,7.17,15.56,18.93,0,6.31-2.09,11.54-6.25,15.7-4.16,4.16-9.55,6.24-16.15,6.24-8.33,0-15.15-2.51-20.46-7.54-5.32-5.02-7.97-11.42-7.97-19.17,0-12.35,6.17-23.56,18.51-33.61C47.45,5.03,63.68,0,83.78,0c29.86,0,50.68,5.32,62.45,15.94,9.47,8.9,14.21,24.41,14.21,46.52v73.66c0,14.36,.14,22.69,.43,24.99,1.43,12.06,5.57,18.09,12.44,18.09,4.86,0,10.87-3.44,18.02-10.33,1.43-1.43,2.57-2.15,3.43-2.15,1.43,0,2.15,.71,2.15,2.14Z" fill="#181d35"/></g></g></svg>